<svg xmlns="http://www.w3.org/2000/svg" width="432" height="432" viewBox="0 0 432 432"><g transform="translate(216.0,216.0) scale(0.29797) translate(-512,-420)"><path d="M494,640 H530 A44,44 0 0 1 574,684 V2356 A44,44 0 0 1 530,2400 H494 A44,44 0 0 1 450,2356 V684 A44,44 0 0 1 494,640 Z" fill="#C77B3F" stroke="#2B1B17" stroke-width="22"/><path d="M218,236 Q236,628 512,700 Q788,628 806,236" fill="none" stroke="#2B1B17" stroke-width="156" stroke-linecap="round" stroke-linejoin="round"/><path d="M218,236 Q236,628 512,700 Q788,628 806,236" fill="none" stroke="#C77B3F" stroke-width="112" stroke-linecap="round" stroke-linejoin="round"/><rect x="461.0" y="700" width="102" height="1640" fill="#C77B3F"/><path d="M190,262 Q200,470 300,600" fill="none" stroke="#E39A58" stroke-width="22" stroke-linecap="round"/><path d="M478,760 V990" stroke="#E39A58" stroke-width="20" stroke-linecap="round"/><path d="M216,282 L222,356" stroke="#2B1B17" stroke-width="156" stroke-linecap="butt"/><path d="M216.9,293.0 L221.1,345.0" stroke="#E8443A" stroke-width="112" stroke-linecap="butt"/><path d="M808,282 L802,356" stroke="#2B1B17" stroke-width="156" stroke-linecap="butt"/><path d="M807.1,293.0 L802.9,345.0" stroke="#E8443A" stroke-width="112" stroke-linecap="butt"/><path d="M250,300 L380,560" stroke="#2B1B17" stroke-width="34" stroke-linecap="round"/><path d="M250,300 L380,560" stroke="#E8443A" stroke-width="13" stroke-linecap="round"/><path d="M774,300 L644,560" stroke="#2B1B17" stroke-width="34" stroke-linecap="round"/><path d="M774,300 L644,560" stroke="#E8443A" stroke-width="13" stroke-linecap="round"/><g transform="translate(512,420)"><circle r="248" fill="#FFD24A"/><path d="M-183.5,34.7 A188.5,188.5 0 0 1 -138.9,-99.2" stroke="#FFF4B8" stroke-width="32.2" fill="none" stroke-linecap="round"/><g transform="rotate(-62 201.36 -163.68) translate(201.36 -163.68) scale(0.8) translate(-201.36 163.68)"><path d="M201.36,-163.68 q104.16,-74.40 153.76,-29.76 q-29.76,49.60 -138.88,49.60 Z" fill="#E8443A" stroke="#2B1B17" stroke-width="16" stroke-linejoin="round" stroke-linecap="round"/><path d="M201.36,-163.68 q119.04,4.96 148.80,64.48 q-59.52,14.88 -143.84,-29.76 Z" fill="#E8443A" stroke="#2B1B17" stroke-width="16" stroke-linejoin="round" stroke-linecap="round"/></g><path d="M-134.56,-208.32 L134.56,-208.32 A248,248 0 0 1 205.47,-138.88 L-205.47,-138.88 A248,248 0 0 1 -134.56,-208.32 Z" fill="#E8443A" stroke="#2B1B17" stroke-width="16" stroke-linejoin="round"/><circle cx="201.36" cy="-163.68" r="29.76" fill="#E8443A" stroke="#2B1B17" stroke-width="16" stroke-linejoin="round" stroke-linecap="round"/><circle r="248" fill="none" stroke="#2B1B17" stroke-width="22"/><ellipse cx="-89.28" cy="-14.88" rx="57.04" ry="74.40" fill="#fff" stroke="#2B1B17" stroke-width="15"/><circle cx="-84.82" cy="-39.43" r="33.48" fill="#2B1B17"/><circle cx="-97.22" cy="-54.31" r="12.40" fill="#fff"/><ellipse cx="89.28" cy="-14.88" rx="57.04" ry="74.40" fill="#fff" stroke="#2B1B17" stroke-width="15"/><circle cx="93.74" cy="-39.43" r="33.48" fill="#2B1B17"/><circle cx="81.34" cy="-54.31" r="12.40" fill="#fff"/><ellipse cx="-148.80" cy="79.36" rx="37.20" ry="22.32" fill="#FF8E5E"/><ellipse cx="148.80" cy="79.36" rx="37.20" ry="22.32" fill="#FF8E5E"/><path d="M-39.68,84.32 Q0,128.96 39.68,84.32" fill="none" stroke="#2B1B17" stroke-width="15" stroke-linecap="round"/></g></g></svg>