<svg xmlns="http://www.w3.org/2000/svg" viewBox="0 0 64 64" fill="none">
  <rect width="64" height="64" fill="#ffffff"/>
  <g opacity="0.04" stroke="#111111" stroke-width="1">
    <path d="M0 8L64 16M0 22L64 30M0 36L64 44M0 50L64 58"/>
  </g>
  <!-- Upright sling aiming top-right with trajectory dots -->
  <g transform="translate(28 34)">
    <ellipse cx="2" cy="24" rx="8" ry="2.8" fill="rgba(17,17,17,0.08)"/>
    <!-- aim dots -->
    <g fill="#2f6fed">
      <circle cx="6" cy="-6" r="1.4" opacity="0.8"/>
      <circle cx="12" cy="-12" r="1.25" opacity="0.65"/>
      <circle cx="17" cy="-15" r="1.1" opacity="0.5"/>
      <circle cx="22" cy="-16" r="0.95" opacity="0.35"/>
      <circle cx="26" cy="-15" r="0.8" opacity="0.22"/>
    </g>
    <path
      d="M0 22V0M-10 -9L0 0L10 -9"
      stroke="#2f6fed"
      stroke-width="4.2"
      stroke-linecap="round"
      stroke-linejoin="round"
    />
    <path
      d="M-10 -9Q-8 4 -6 8"
      stroke="#1d4fbf"
      stroke-width="2.2"
      stroke-linecap="round"
      fill="none"
    />
    <path
      d="M10 -9Q0 4 -6 8"
      stroke="#1d4fbf"
      stroke-width="2.2"
      stroke-linecap="round"
      fill="none"
    />
    <circle cx="-6" cy="9" r="6.2" fill="#f0d9a0"/>
    <circle cx="-8" cy="6.8" r="1.7" fill="#fff6dd"/>
  </g>
</svg>
